<!DOCTYPE svg PUBLIC "-//W3C//DTD SVG 1.1//EN" "http://www.w3.org/Graphics/SVG/1.1/DTD/svg11.dtd">
<!-- Uploaded to: SVG Repo, www.svgrepo.com, Transformed by: SVG Repo Mixer Tools -->
<svg fill="#ee7581" height="800px" width="800px" version="1.1" id="Capa_1" xmlns="http://www.w3.org/2000/svg" xmlns:xlink="http://www.w3.org/1999/xlink" viewBox="0 0 490 490" xml:space="preserve" stroke="#ee7581">
<g id="SVGRepo_bgCarrier" stroke-width="0"/>
<g id="SVGRepo_tracerCarrier" stroke-linecap="round" stroke-linejoin="round"/>
<g id="SVGRepo_iconCarrier"> <g> <g> <g> <path d="M83,409.1c-30.3,0-55.2,18.3-55.2,40.4S52.7,490,83,490h295.2c-24.1-24.1-24.1-56.8,0-80.9H83z"/> <g> <path d="M263.9,259c-4.7-0.4-9.7,0.4-14.8,1.6c-19.8,5.1-32.7,21-28.8,35.8c3.9,14.4,22.9,21.8,42.4,16.7 c17.9-4.7,29.9-18.3,29.2-31.1V156.7l141.9-37.3v89.8c-4.7-0.4-9.7,0.4-14.8,1.6c-19.8,5.1-32.7,21-28.8,35.8 c3.9,14.4,22.9,21.8,42.4,16.7c18.7-5.1,31.1-19.4,29.2-33.4h0.4v-175L263.9,107"/> <path d="M312.1,284.7c0,41.7-55.6,49.8-61.4,49.8c-24.1,0-42.5-13.7-49.4-33.1c-5-14.1,2.3-48.6,42.8-59.9V91.8l134.2-35.4V0 H91.6v388.9h286.6V265.2c-7-7-17.7-32.1,0-49.8v-61.1l-66.1,17.5V284.7z"/> </g> <path d="M71.4,1.6C46.5,8.2,27.8,34.3,27.8,65.8v342.6c11.3-9.7,26.4-16.3,43.6-18.3V1.6z"/> </g> </g> </g> </g>
</svg>